ffmpeg started on 2025-05-19 at 12:21:37
Report written to "D:\Convert\FFMetrics\reports\psnr_report-6.txt"
Log level: 32
Command line:
ffmpeg -hide_banner -nostdin -i "G:\\\xc0\xed\xe8\xec\xe5\\\xce\xed\xe3\xee\xe8\xed\xe3\xe8\\!_30_\xc2\xe5\xf1\xed\xe0_2023\\DreamCast\\\xd2\xe5\xed\xfc \xeb\xfe\xe1\xe2\xe8 \xe2 \xf2\xe0\xe9\xed\xee\xe9 \xea\xee\xec\xed\xe0\xf2\xe5\\[DC] Aiyou de Mishi - 08_Telegram_HEVC.mkv" -i "G:\\\xc0\xed\xe8\xec\xe5\\\xce\xed\xe3\xee\xe8\xed\xe3\xe8\\!_30_\xc2\xe5\xf1\xed\xe0_2023\\DreamCast\\\xd2\xe5\xed\xfc \xeb\xfe\xe1\xe2\xe8 \xe2 \xf2\xe0\xe9\xed\xee\xe9 \xea\xee\xec\xed\xe0\xf2\xe5\\[DC] Aiyou de Mishi - 08_Telegram.mp4" -lavfi "[0:v]settb=AVTB,setpts=PTS-STARTPTS,format=pix_fmts=yuv420p10,fps=24/1,scale=1920:1080:flags=bicubic[main];[1:v]settb=AVTB,setpts=PTS-STARTPTS,format=pix_fmts=yuv420p,fps=24/1,scale=1920:1080:flags=bicubic[ref];[main][ref]psnr=eof_action=endall:stats_file='D\\:/Convert/FFMetrics/logs/psnr_logfile-6.txt'" -f null -
Input #0, matroska,webm, from 'G:\Аниме\Онгоинги\!_30_Весна_2023\DreamCast\Тень любви в тайной комнате\[DC] Aiyou de Mishi - 08_Telegram_HEVC.mkv':
  Metadata:
    COMPATIBLE_BRANDS: isomiso2avc1mp41
    MAJOR_BRAND     : isom
    MINOR_VERSION   : 512
    ENCODER         : Lavf61.7.100
  Duration: 00:15:40.42, start: -0.021000, bitrate: 1385 kb/s
  Stream #0:0: Video: hevc (Main 10), yuv420p10le(tv, bt709, progressive), 1920x1080 [SAR 1:1 DAR 16:9], 24 fps, 24 tbr, 1k tbn (default)
      Metadata:
        HANDLER_NAME    : VideoHandler
        VENDOR_ID       : [0][0][0][0]
        ENCODER         : Lavc61.19.100 libx265
        BPS             : 1185825
        DURATION        : 00:15:40.291666666
        NUMBER_OF_FRAMES: 22567
        NUMBER_OF_BYTES : 139377665
        _STATISTICS_WRITING_APP: mkvpropedit v66.0.0 ('Josie') 64-bit
        _STATISTICS_WRITING_DATE_UTC: 2025-05-19 07:56:39
        _STATISTICS_TAGS: BPS DURATION NUMBER_OF_FRAMES NUMBER_OF_BYTES
  Stream #0:1: Audio: aac (LC), 48000 Hz, stereo, fltp (default)
      Metadata:
        HANDLER_NAME    : SoundHandler
        VENDOR_ID       : [0][0][0][0]
        ENCODER         : Lavc61.19.100 aac
        BPS             : 195675
        DURATION        : 00:15:40.394000000
        NUMBER_OF_FRAMES: 44082
        NUMBER_OF_BYTES : 23001461
        _STATISTICS_WRITING_APP: mkvpropedit v66.0.0 ('Josie') 64-bit
        _STATISTICS_WRITING_DATE_UTC: 2025-05-19 07:56:39
        _STATISTICS_TAGS: BPS DURATION NUMBER_OF_FRAMES NUMBER_OF_BYTES
Input #1, mov,mp4,m4a,3gp,3g2,mj2, from 'G:\Аниме\Онгоинги\!_30_Весна_2023\DreamCast\Тень любви в тайной комнате\[DC] Aiyou de Mishi - 08_Telegram.mp4':
  Metadata:
    major_brand     : isom
    minor_version   : 512
    compatible_brands: isomiso2avc1mp41
    encoder         : Lavf60.4.101
  Duration: 00:15:40.38, start: 0.000000, bitrate: 3916 kb/s
  Stream #1:0[0x1](und): Video: h264 (Main) (avc1 / 0x31637661), yuv420p(tv, bt709, progressive), 1920x1080 [SAR 1:1 DAR 16:9], 3715 kb/s, 24 fps, 24 tbr, 12288 tbn (default)
      Metadata:
        handler_name    : VideoHandler
        vendor_id       : [0][0][0][0]
        encoder         : Lavc60.9.100 h264_qsv
  Stream #1:1[0x2](und): Audio: aac (LC) (mp4a / 0x6134706D), 48000 Hz, stereo, fltp, 195 kb/s (default)
      Metadata:
        handler_name    : SoundHandler
        vendor_id       : [0][0][0][0]
Stream mapping:
  Stream #0:0 (hevc) -> settb:default
  Stream #1:0 (h264) -> settb:default
  psnr:default -> Stream #0:0 (wrapped_avframe)
  Stream #0:1 -> #0:1 (aac (native) -> pcm_s16le (native))
Output #0, null, to 'pipe:':
  Metadata:
    COMPATIBLE_BRANDS: isomiso2avc1mp41
    MAJOR_BRAND     : isom
    MINOR_VERSION   : 512
    encoder         : Lavf61.7.100
  Stream #0:0: Video: wrapped_avframe, yuv420p10le(tv, bt709, progressive), 1920x1080 [SAR 1:1 DAR 16:9], q=2-31, 200 kb/s, 24 fps, 24 tbn
      Metadata:
        encoder         : Lavc61.19.100 wrapped_avframe
  Stream #0:1: Audio: pcm_s16le, 48000 Hz, stereo, s16, 1536 kb/s (default)
      Metadata:
        HANDLER_NAME    : SoundHandler
        VENDOR_ID       : [0][0][0][0]
        _STATISTICS_TAGS: BPS DURATION NUMBER_OF_FRAMES NUMBER_OF_BYTES
        BPS             : 195675
        DURATION        : 00:15:40.394000000
        NUMBER_OF_FRAMES: 44082
        NUMBER_OF_BYTES : 23001461
        _STATISTICS_WRITING_APP: mkvpropedit v66.0.0 ('Josie') 64-bit
        _STATISTICS_WRITING_DATE_UTC: 2025-05-19 07:56:39
        encoder         : Lavc61.19.100 pcm_s16le
frame=  183 fps=0.0 q=-0.0 size=N/A time=00:00:07.62 bitrate=N/A speed=  15x    frame=  377 fps=367 q=-0.0 size=N/A time=00:00:15.70 bitrate=N/A speed=15.3x    frame=  630 fps=410 q=-0.0 size=N/A time=00:00:26.25 bitrate=N/A speed=17.1x    frame=  896 fps=435 q=-0.0 size=N/A time=00:00:37.33 bitrate=N/A speed=18.1x    frame= 1121 fps=436 q=-0.0 size=N/A time=00:00:46.70 bitrate=N/A speed=18.2x    frame= 1346 fps=436 q=-0.0 size=N/A time=00:00:56.08 bitrate=N/A speed=18.1x    frame= 1604 fps=446 q=-0.0 size=N/A time=00:01:06.83 bitrate=N/A speed=18.6x    frame= 1899 fps=461 q=-0.0 size=N/A time=00:01:19.12 bitrate=N/A speed=19.2x    frame= 2175 fps=470 q=-0.0 size=N/A time=00:01:30.62 bitrate=N/A speed=19.6x    frame= 2414 fps=468 q=-0.0 size=N/A time=00:01:40.58 bitrate=N/A speed=19.5x    frame= 2647 fps=468 q=-0.0 size=N/A time=00:01:50.29 bitrate=N/A speed=19.5x    frame= 2863 fps=463 q=-0.0 size=N/A time=00:01:59.29 bitrate=N/A speed=19.3x    frame= 3142 fps=469 q=-0.0 size=N/A time=00:02:10.91 bitrate=N/A speed=19.5x    frame= 3377 fps=468 q=-0.0 size=N/A time=00:02:20.70 bitrate=N/A speed=19.5x    frame= 3580 fps=463 q=-0.0 size=N/A time=00:02:29.16 bitrate=N/A speed=19.3x    frame= 3746 fps=455 q=-0.0 size=N/A time=00:02:36.08 bitrate=N/A speed=18.9x    frame= 3909 fps=446 q=-0.0 size=N/A time=00:02:42.87 bitrate=N/A speed=18.6x    frame= 4116 fps=443 q=-0.0 size=N/A time=00:02:51.50 bitrate=N/A speed=18.5x    frame= 4301 fps=439 q=-0.0 size=N/A time=00:02:59.20 bitrate=N/A speed=18.3x    frame= 4434 fps=430 q=-0.0 size=N/A time=00:03:04.75 bitrate=N/A speed=17.9x    frame= 4657 fps=430 q=-0.0 size=N/A time=00:03:14.04 bitrate=N/A speed=17.9x    frame= 4884 fps=431 q=-0.0 size=N/A time=00:03:23.50 bitrate=N/A speed=  18x    frame= 5088 fps=429 q=-0.0 size=N/A time=00:03:32.00 bitrate=N/A speed=17.9x    frame= 5243 fps=424 q=-0.0 size=N/A time=00:03:38.45 bitrate=N/A speed=17.7x    frame= 5473 fps=425 q=-0.0 size=N/A time=00:03:48.04 bitrate=N/A speed=17.7x    frame= 5742 fps=429 q=-0.0 size=N/A time=00:03:59.25 bitrate=N/A speed=17.9x    frame= 6009 fps=432 q=-0.0 size=N/A time=00:04:10.37 bitrate=N/A speed=  18x    frame= 6240 fps=432 q=-0.0 size=N/A time=00:04:20.00 bitrate=N/A speed=  18x    frame= 6489 fps=434 q=-0.0 size=N/A time=00:04:30.37 bitrate=N/A speed=18.1x    frame= 6744 fps=436 q=-0.0 size=N/A time=00:04:41.00 bitrate=N/A speed=18.2x    frame= 6944 fps=435 q=-0.0 size=N/A time=00:04:49.33 bitrate=N/A speed=18.1x    frame= 7175 fps=435 q=-0.0 size=N/A time=00:04:58.95 bitrate=N/A speed=18.1x    frame= 7417 fps=436 q=-0.0 size=N/A time=00:05:09.04 bitrate=N/A speed=18.2x    frame= 7628 fps=435 q=-0.0 size=N/A time=00:05:17.83 bitrate=N/A speed=18.1x    frame= 7893 fps=437 q=-0.0 size=N/A time=00:05:28.91 bitrate=N/A speed=18.2x    frame= 8091 fps=436 q=-0.0 size=N/A time=00:05:37.12 bitrate=N/A speed=18.2x    frame= 8317 fps=436 q=-0.0 size=N/A time=00:05:46.54 bitrate=N/A speed=18.2x    frame= 8551 fps=436 q=-0.0 size=N/A time=00:05:56.29 bitrate=N/A speed=18.2x    frame= 8779 fps=437 q=-0.0 size=N/A time=00:06:05.79 bitrate=N/A speed=18.2x    frame= 9013 fps=437 q=-0.0 size=N/A time=00:06:15.54 bitrate=N/A speed=18.2x    frame= 9207 fps=436 q=-0.0 size=N/A time=00:06:23.62 bitrate=N/A speed=18.2x    frame= 9469 fps=437 q=-0.0 size=N/A time=00:06:34.54 bitrate=N/A speed=18.2x    frame= 9723 fps=439 q=-0.0 size=N/A time=00:06:45.12 bitrate=N/A speed=18.3x    frame= 9971 fps=439 q=-0.0 size=N/A time=00:06:55.45 bitrate=N/A speed=18.3x    frame=10244 fps=442 q=-0.0 size=N/A time=00:07:06.83 bitrate=N/A speed=18.4x    frame=10525 fps=444 q=-0.0 size=N/A time=00:07:18.54 bitrate=N/A speed=18.5x    frame=10743 fps=444 q=-0.0 size=N/A time=00:07:27.62 bitrate=N/A speed=18.5x    frame=11009 fps=445 q=-0.0 size=N/A time=00:07:38.70 bitrate=N/A speed=18.5x    frame=11267 fps=446 q=-0.0 size=N/A time=00:07:49.45 bitrate=N/A speed=18.6x    frame=11514 fps=447 q=-0.0 size=N/A time=00:07:59.75 bitrate=N/A speed=18.6x    frame=11737 fps=446 q=-0.0 size=N/A time=00:08:09.04 bitrate=N/A speed=18.6x    frame=11978 fps=447 q=-0.0 size=N/A time=00:08:19.08 bitrate=N/A speed=18.6x    frame=12238 fps=448 q=-0.0 size=N/A time=00:08:29.91 bitrate=N/A speed=18.7x    frame=12481 fps=448 q=-0.0 size=N/A time=00:08:40.04 bitrate=N/A speed=18.7x    frame=12713 fps=448 q=-0.0 size=N/A time=00:08:49.70 bitrate=N/A speed=18.7x    frame=12971 fps=449 q=-0.0 size=N/A time=00:09:00.45 bitrate=N/A speed=18.7x    frame=13249 fps=451 q=-0.0 size=N/A time=00:09:12.04 bitrate=N/A speed=18.8x    frame=13523 fps=452 q=-0.0 size=N/A time=00:09:23.45 bitrate=N/A speed=18.8x    frame=13765 fps=453 q=-0.0 size=N/A time=00:09:33.54 bitrate=N/A speed=18.9x    frame=14023 fps=453 q=-0.0 size=N/A time=00:09:44.29 bitrate=N/A speed=18.9x    frame=14263 fps=454 q=-0.0 size=N/A time=00:09:54.29 bitrate=N/A speed=18.9x    frame=14540 fps=455 q=-0.0 size=N/A time=00:10:05.83 bitrate=N/A speed=  19x    frame=14812 fps=456 q=-0.0 size=N/A time=00:10:17.16 bitrate=N/A speed=  19x    frame=15102 fps=458 q=-0.0 size=N/A time=00:10:29.25 bitrate=N/A speed=19.1x    frame=15377 fps=459 q=-0.0 size=N/A time=00:10:40.70 bitrate=N/A speed=19.1x    frame=15653 fps=460 q=-0.0 size=N/A time=00:10:52.20 bitrate=N/A speed=19.2x    frame=15901 fps=460 q=-0.0 size=N/A time=00:11:02.54 bitrate=N/A speed=19.2x    frame=16083 fps=459 q=-0.0 size=N/A time=00:11:10.12 bitrate=N/A speed=19.1x    frame=16352 fps=460 q=-0.0 size=N/A time=00:11:21.33 bitrate=N/A speed=19.2x    frame=16608 fps=460 q=-0.0 size=N/A time=00:11:32.00 bitrate=N/A speed=19.2x    frame=16876 fps=461 q=-0.0 size=N/A time=00:11:43.16 bitrate=N/A speed=19.2x    frame=17153 fps=462 q=-0.0 size=N/A time=00:11:54.75 bitrate=N/A speed=19.3x    frame=17444 fps=463 q=-0.0 size=N/A time=00:12:06.83 bitrate=N/A speed=19.3x    frame=17712 fps=464 q=-0.0 size=N/A time=00:12:18.00 bitrate=N/A speed=19.3x    frame=17907 fps=463 q=-0.0 size=N/A time=00:12:26.12 bitrate=N/A speed=19.3x    frame=18181 fps=464 q=-0.0 size=N/A time=00:12:37.54 bitrate=N/A speed=19.3x    frame=18460 fps=465 q=-0.0 size=N/A time=00:12:49.16 bitrate=N/A speed=19.4x    frame=18725 fps=466 q=-0.0 size=N/A time=00:13:00.20 bitrate=N/A speed=19.4x    frame=18988 fps=466 q=-0.0 size=N/A time=00:13:11.16 bitrate=N/A speed=19.4x    frame=19186 fps=465 q=-0.0 size=N/A time=00:13:19.41 bitrate=N/A speed=19.4x    frame=19384 fps=464 q=-0.0 size=N/A time=00:13:27.66 bitrate=N/A speed=19.3x    frame=19663 fps=465 q=-0.0 size=N/A time=00:13:39.29 bitrate=N/A speed=19.4x    frame=19925 fps=466 q=-0.0 size=N/A time=00:13:50.20 bitrate=N/A speed=19.4x    frame=20174 fps=466 q=-0.0 size=N/A time=00:14:00.58 bitrate=N/A speed=19.4x    frame=20439 fps=466 q=-0.0 size=N/A time=00:14:11.62 bitrate=N/A speed=19.4x    frame=20630 fps=465 q=-0.0 size=N/A time=00:14:19.58 bitrate=N/A speed=19.4x    frame=20770 fps=463 q=-0.0 size=N/A time=00:14:25.41 bitrate=N/A speed=19.3x    frame=20944 fps=462 q=-0.0 size=N/A time=00:14:32.66 bitrate=N/A speed=19.2x    frame=21169 fps=461 q=-0.0 size=N/A time=00:14:42.04 bitrate=N/A speed=19.2x    frame=21384 fps=461 q=-0.0 size=N/A time=00:14:51.00 bitrate=N/A speed=19.2x    frame=21590 fps=460 q=-0.0 size=N/A time=00:14:59.58 bitrate=N/A speed=19.2x    frame=21802 fps=460 q=-0.0 size=N/A time=00:15:08.41 bitrate=N/A speed=19.2x    frame=22002 fps=459 q=-0.0 size=N/A time=00:15:16.75 bitrate=N/A speed=19.1x    frame=22204 fps=458 q=-0.0 size=N/A time=00:15:25.16 bitrate=N/A speed=19.1x    frame=22414 fps=458 q=-0.0 size=N/A time=00:15:33.91 bitrate=N/A speed=19.1x    [Parsed_psnr_10 @ 000002051b100b00] PSNR y:47.741867 u:52.484091 v:52.399509 average:48.823027 min:36.393805 max:inf
[out#0/null @ 000002050e534a80] video:9697KiB audio:176328KiB subtitle:0KiB other streams:0KiB global headers:0KiB muxing overhead: unknown
frame=22567 fps=458 q=-0.0 Lsize=N/A time=00:15:40.29 bitrate=N/A speed=19.1x    
